<?xml version="1.0" standalone="no"?>
<!DOCTYPE svg PUBLIC "-//W3C//DTD SVG 20010904//EN"
 "http://www.w3.org/TR/2001/REC-SVG-20010904/DTD/svg10.dtd">
<svg version="1.0" xmlns="http://www.w3.org/2000/svg"
 width="450.000000pt" height="450.000000pt" viewBox="0 0 450.000000 450.000000"
 preserveAspectRatio="xMidYMid meet">
<metadata>
Created by potrace 1.14, written by Peter Selinger 2001-2017
</metadata>
<g transform="translate(0.000000,450.000000) scale(0.100000,-0.100000)"
fill="#000000" stroke="none">
<path d="M2110 4274 c-318 -36 -495 -84 -725 -193 -284 -136 -517 -318 -709
-556 -229 -282 -369 -597 -432 -970 -22 -127 -25 -460 -6 -590 120 -803 680
-1449 1454 -1674 192 -56 320 -73 548 -75 215 -1 293 7 475 50 778 181 1384
808 1534 1588 155 806 -184 1622 -863 2077 -329 221 -683 333 -1081 343 -88 2
-176 2 -195 0z m415 -69 c70 -18 225 -90 291 -136 119 -81 244 -222 314 -352
209 -387 139 -860 -175 -1172 -190 -191 -395 -276 -707 -295 -84 -6 -173 -14
-198 -19 -313 -66 -579 -279 -715 -575 -140 -302 -110 -688 75 -965 101 -150
221 -258 390 -350 41 -22 70 -41 65 -41 -26 0 -218 55 -305 87 -180 67 -382
180 -528 296 -633 500 -903 1327 -686 2099 174 621 652 1128 1260 1337 158 53
278 78 514 105 75 9 347 -4 405 -19z m-157 -2751 c142 -69 172 -264 58 -378
-44 -45 -115 -76 -171 -76 -100 0 -202 77 -230 175 -38 128 28 251 157 297 64
22 112 17 186 -18z"/>
<path d="M2139 3473 c-158 -81 -186 -296 -53 -413 52 -46 99 -63 169 -63 265
0 352 356 116 476 -42 21 -69 27 -116 27 -47 0 -74 -6 -116 -27z"/>
</g>
</svg>
